<?xml version="1.0" encoding="UTF-8" standalone="no"?>
<svg
   fill="none"
   viewBox="0 0 128 128"
   version="1.1"
   id="svg6"
   sodipodi:docname="favicon.svg"
   inkscape:version="1.1.2 (0a00cf5339, 2022-02-04)"
   xmlns:inkscape="http://www.inkscape.org/namespaces/inkscape"
   xmlns:sodipodi="http://sodipodi.sourceforge.net/DTD/sodipodi-0.dtd"
   xmlns="http://www.w3.org/2000/svg"
   xmlns:svg="http://www.w3.org/2000/svg">
  <defs
     id="defs10" />
  <sodipodi:namedview
     id="namedview8"
     pagecolor="#ffffff"
     bordercolor="#666666"
     borderopacity="1.0"
     inkscape:pageshadow="2"
     inkscape:pageopacity="0.0"
     inkscape:pagecheckerboard="0"
     showgrid="false"
     inkscape:zoom="2.9101563"
     inkscape:cx="16.493959"
     inkscape:cy="52.91812"
     inkscape:window-width="1920"
     inkscape:window-height="1011"
     inkscape:window-x="0"
     inkscape:window-y="0"
     inkscape:window-maximized="1"
     inkscape:current-layer="svg6" />
  <style
     id="style4">
        path { fill: #000; }
        @media (prefers-color-scheme: dark) {
            path { fill: #FFF; }
        }
    </style>
  <g
     id="g935"
     transform="translate(-4.4425676,-24.685497)"
     style="fill:#f6f6f6">
    <g
       id="g930"
       transform="matrix(0.77385316,0,0,1,9.2163478,1.2954279)"
       style="fill:#f6f6f6">
      <path
         d="m 23.714325,92.113842 c -9.8611,0.404965 -19.5456773,2.749652 -28.5000003,6.9 l 24.2000003,-65.7 c 0.7,-2 1.9,-3.2 3.4,-3.2 h 29 c 1.5,0 2.7,1.2 3.4,3.2 l 24.2,65.7 c 0,0 -11.6,-7 -28.5,-7 l -10.6,-32.9 c -0.4,-1.7 -1.6,-2.8 -2.9,-2.8 -1.3,0 -2.5,1.1 -2.9,2.7 z"
         id="path2"
         sodipodi:nodetypes="cccssccccscc"
         style="fill:#f6f6f6" />
      <path
         d="m 88.173616,91.962856 c -9.8611,0.40497 -19.545677,2.74965 -28.5,6.9 l 24.2,-65.7 c 0.7,-2 1.9,-3.2 3.4,-3.2 h 29.000004 c 1.5,0 2.7,1.2 3.4,3.2 l 24.2,65.7 c 0,0 -11.6,-7 -28.5,-7 l -10.6,-32.9 c -0.4,-1.7 -1.6,-2.8 -2.9,-2.8 -1.3,0 -2.500004,1.1 -2.900004,2.7 z"
         id="path926"
         sodipodi:nodetypes="cccssccccscc"
         style="fill:#f6f6f6" />
    </g>
  </g>
  <g
     id="g1227"
     transform="translate(-0.75398094,-10.193743)"
     style="fill:#d4d4d4">
    <g
       id="g1225"
       transform="matrix(0.77385316,0,0,1,9.2163478,1.2954279)"
       style="fill:#d4d4d4">
      <path
         d="m 23.714325,92.113842 c -9.8611,0.404965 -19.5456773,2.749652 -28.5000003,6.9 l 24.2000003,-65.7 c 0.7,-2 1.9,-3.2 3.4,-3.2 h 29 c 1.5,0 2.7,1.2 3.4,3.2 l 24.2,65.7 c 0,0 -11.6,-7 -28.5,-7 l -10.6,-32.9 c -0.4,-1.7 -1.6,-2.8 -2.9,-2.8 -1.3,0 -2.5,1.1 -2.9,2.7 z"
         id="path1221"
         sodipodi:nodetypes="cccssccccscc"
         style="fill:#d4d4d4" />
      <path
         d="m 88.173616,91.962856 c -9.8611,0.40497 -19.545677,2.74965 -28.5,6.9 l 24.2,-65.7 c 0.7,-2 1.9,-3.2 3.4,-3.2 h 29.000004 c 1.5,0 2.7,1.2 3.4,3.2 l 24.2,65.7 c 0,0 -11.6,-7 -28.5,-7 l -10.6,-32.9 c -0.4,-1.7 -1.6,-2.8 -2.9,-2.8 -1.3,0 -2.500004,1.1 -2.900004,2.7 z"
         id="path1223"
         sodipodi:nodetypes="cccssccccscc"
         style="fill:#d4d4d4" />
    </g>
  </g>
  <g
     id="g1253"
     transform="translate(2.9346101,4.2980096)"
     style="fill:#525252">
    <g
       id="g1251"
       transform="matrix(0.77385316,0,0,1,9.2163478,1.2954279)"
       style="fill:#525252">
      <path
         d="m 23.714325,92.113842 c -9.8611,0.404965 -19.5456773,2.749652 -28.5000003,6.9 l 24.2000003,-65.7 c 0.7,-2 1.9,-3.2 3.4,-3.2 h 29 c 1.5,0 2.7,1.2 3.4,3.2 l 24.2,65.7 c 0,0 -11.6,-7 -28.5,-7 l -10.6,-32.9 c -0.4,-1.7 -1.6,-2.8 -2.9,-2.8 -1.3,0 -2.5,1.1 -2.9,2.7 z"
         id="path1247"
         sodipodi:nodetypes="cccssccccscc"
         style="fill:#525252" />
      <path
         d="m 88.173616,91.962856 c -9.8611,0.40497 -19.545677,2.74965 -28.5,6.9 l 24.2,-65.7 c 0.7,-2 1.9,-3.2 3.4,-3.2 h 29.000004 c 1.5,0 2.7,1.2 3.4,3.2 l 24.2,65.7 c 0,0 -11.6,-7 -28.5,-7 l -10.6,-32.9 c -0.4,-1.7 -1.6,-2.8 -2.9,-2.8 -1.3,0 -2.500004,1.1 -2.900004,2.7 z"
         id="path1249"
         sodipodi:nodetypes="cccssccccscc"
         style="fill:#525252" />
    </g>
  </g>
  <g
     id="g1201"
     transform="translate(6.6232011,18.789762)"
     style="fill:#1f1f1f">
    <g
       id="g1199"
       transform="matrix(0.77385316,0,0,1,9.2163478,1.2954279)"
       style="fill:#1f1f1f">
      <path
         d="m 23.714325,92.113842 c -9.8611,0.404965 -19.5456773,2.749652 -28.5000003,6.9 l 24.2000003,-65.7 c 0.7,-2 1.9,-3.2 3.4,-3.2 h 29 c 1.5,0 2.7,1.2 3.4,3.2 l 24.2,65.7 c 0,0 -11.6,-7 -28.5,-7 l -10.6,-32.9 c -0.4,-1.7 -1.6,-2.8 -2.9,-2.8 -1.3,0 -2.5,1.1 -2.9,2.7 z"
         id="path1195"
         sodipodi:nodetypes="cccssccccscc"
         style="fill:#1f1f1f" />
      <path
         d="m 88.173616,91.962856 c -9.8611,0.40497 -19.545677,2.74965 -28.5,6.9 l 24.2,-65.7 c 0.7,-2 1.9,-3.2 3.4,-3.2 h 29.000004 c 1.5,0 2.7,1.2 3.4,3.2 l 24.2,65.7 c 0,0 -11.6,-7 -28.5,-7 l -10.6,-32.9 c -0.4,-1.7 -1.6,-2.8 -2.9,-2.8 -1.3,0 -2.500004,1.1 -2.900004,2.7 z"
         id="path1197"
         sodipodi:nodetypes="cccssccccscc"
         style="fill:#1f1f1f" />
    </g>
  </g>
</svg>
